<svg width="66" height="66" viewBox="0 0 66 66" fill="none" xmlns="http://www.w3.org/2000/svg">
<path d="M55.1111 19.0247C47.3326 6.9996 31.4513 3.42458 19.1353 10.8996C7.1433 18.3747 3.25402 34.6248 11.0326 46.6499L11.6808 47.6249L9.08794 57.375L18.8111 54.775L19.7835 55.425C23.9969 57.7 28.5344 59 33.0718 59C37.9335 59 42.7951 57.7 47.0084 55.1C59.0004 47.2999 62.5656 31.3748 55.1111 19.0247ZM48.3049 44.0499C47.0084 45.9999 45.3879 47.2999 43.1192 47.6249C41.8227 47.6249 40.2022 48.2749 33.7201 45.6749C28.2102 43.0749 23.6727 38.8498 20.4317 33.9748C18.487 31.6998 17.5147 28.7748 17.1906 25.8497C17.1906 23.2497 18.1629 20.9747 19.7835 19.3497C20.4317 18.6997 21.0799 18.3747 21.7281 18.3747H23.3486C23.9969 18.3747 24.6451 18.3747 24.9692 19.6747C25.6174 21.2997 27.2379 25.1997 27.2379 25.5247C27.562 25.8497 27.562 26.4998 27.2379 26.8248C27.562 27.4748 27.2379 28.1248 26.9138 28.4498C26.5897 28.7748 26.2656 29.4248 25.9415 29.7498C25.2933 30.0748 24.9692 30.7248 25.2933 31.3748C26.5897 33.3248 28.2102 35.2748 29.8308 36.8998C31.7754 38.5248 33.7201 39.8249 35.9888 40.7999C36.637 41.1249 37.2852 41.1249 37.6093 40.4749C37.9335 39.8249 39.554 38.1998 40.2022 37.5498C40.8504 36.8998 41.1745 36.8998 41.8227 37.2248L47.0084 39.8249C47.6567 40.1499 48.3049 40.4749 48.629 40.7999C48.9531 41.7749 48.9531 43.0749 48.3049 44.0499Z" fill="#73B258"/>
</svg>
